<svg width="79" height="29" viewBox="0 0 79 29" fill="none" xmlns="http://www.w3.org/2000/svg">
<g clip-path="url(#clip0_627_4697)">
<path d="M33.32 21.25C33.3622 20.2829 33.197 19.318 32.8356 18.4199C32.4741 17.5219 31.9248 16.7116 31.2244 16.0434C30.524 15.3752 29.6887 14.8646 28.7747 14.5458C27.8607 14.227 26.889 14.1074 25.925 14.195C26.35 8.495 30.77 3.57 33.745 1.275L32.895 0C26.69 3.91 18.87 11.985 18.87 20.315C18.87 25.075 21.59 28.56 26.01 28.56C26.9759 28.5819 27.9363 28.4077 28.8331 28.0481C29.7299 27.6885 30.5444 27.1508 31.2276 26.4676C31.9108 25.7844 32.4485 24.9699 32.8081 24.0731C33.1677 23.1763 33.3419 22.2159 33.32 21.25ZM14.45 21.25C14.4923 20.2824 14.327 19.317 13.9653 18.4186C13.6035 17.5202 13.0537 16.7097 12.3527 16.0414C11.6518 15.3731 10.8159 14.8626 9.90126 14.5441C8.98664 14.2256 8.01444 14.1066 7.05 14.195C7.475 8.495 11.895 3.57 14.87 1.275L14.02 0C7.82 3.91 0 11.985 0 20.315C0 25.075 2.72 28.56 7.14 28.56C8.10595 28.5819 9.06631 28.4077 9.96308 28.0481C10.8599 27.6885 11.6744 27.1508 12.3576 26.4676C13.0408 25.7844 13.5785 24.9699 13.9381 24.0731C14.2977 23.1763 14.4719 22.2159 14.45 21.25Z" fill="#72D8BA"/>
</g>
<g clip-path="url(#clip1_627_4697)">
<path d="M45.4261 7.31007C45.3839 8.27717 45.5491 9.24211 45.9105 10.1401C46.272 11.0381 46.8213 11.8484 47.5217 12.5166C48.2221 13.1848 49.0574 13.6955 49.9714 14.0143C50.8854 14.3331 51.857 14.4527 52.8211 14.3651C52.3961 20.0651 47.9761 24.9901 45.0011 27.2851L45.8511 28.5601C52.0561 24.6501 59.8761 16.5751 59.8761 8.24506C59.8761 3.48506 57.1561 6.29226e-05 52.7361 6.3309e-05C51.7701 -0.0218044 50.8098 0.152329 49.913 0.51195C49.0162 0.871571 48.2017 1.40921 47.5184 2.09242C46.8352 2.77562 46.2976 3.59021 45.938 4.48698C45.5784 5.38376 45.4042 6.34412 45.4261 7.31007ZM64.2961 7.31006C64.2538 8.27763 64.4191 9.24303 64.7808 10.1414C65.1426 11.0398 65.6924 11.8504 66.3934 12.5187C67.0943 13.187 67.9302 13.6975 68.8448 14.016C69.7595 14.3344 70.7317 14.4535 71.6961 14.3651C71.2711 20.0651 66.8511 24.9901 63.8761 27.2851L64.7261 28.5601C70.9261 24.6501 78.7461 16.5751 78.7461 8.24506C78.7461 3.48506 76.0261 6.12729e-05 71.6061 6.16594e-05C70.6401 -0.021806 69.6798 0.152327 68.783 0.511949C67.8862 0.87157 67.0716 1.40921 66.3884 2.09242C65.7052 2.77562 65.1676 3.59021 64.808 4.48698C64.4484 5.38376 64.2742 6.34412 64.2961 7.31006Z" fill="#72D8BA"/>
</g>
<defs>
<clipPath id="clip0_627_4697">
<rect width="33.745" height="28.56" fill="white"/>
</clipPath>
<clipPath id="clip1_627_4697">
<rect width="33.745" height="28.56" fill="white" transform="translate(78.7461 28.5601) rotate(180)"/>
</clipPath>
</defs>
</svg>
